<mxfile host="app.diagrams.net" agent="Mozilla/5.0 (Windows NT 10.0; Win64; x64) AppleWebKit/537.36 (KHTML, like Gecko) Chrome/132.0.0.0 Safari/537.36 Edg/132.0.0.0" version="26.0.7">
  <diagram name="Seite-1" id="ECEqZGIzsGIYcj52K8MJ">
    <mxGraphModel dx="2746" dy="1791" grid="1" gridSize="10" guides="1" tooltips="1" connect="1" arrows="1" fold="1" page="1" pageScale="1" pageWidth="1169" pageHeight="827" math="0" shadow="0">
      <root>
        <mxCell id="0" />
        <mxCell id="1" parent="0" />
        <mxCell id="WiDr2w4eeA-nj6cZ7OZJ-46" value="Evaluate Inputs&lt;div&gt;&lt;br&gt;&lt;/div&gt;&lt;div&gt;&lt;br&gt;&lt;/div&gt;&lt;div&gt;&lt;br&gt;&lt;/div&gt;&lt;div&gt;&lt;br&gt;&lt;/div&gt;&lt;div&gt;&lt;br&gt;&lt;/div&gt;&lt;div&gt;&lt;br&gt;&lt;/div&gt;&lt;div&gt;&lt;br&gt;&lt;/div&gt;&lt;div&gt;&lt;br&gt;&lt;/div&gt;&lt;div&gt;&lt;br&gt;&lt;/div&gt;&lt;div&gt;&lt;br&gt;&lt;/div&gt;&lt;div&gt;&lt;br&gt;&lt;/div&gt;&lt;div&gt;&lt;br&gt;&lt;/div&gt;&lt;div&gt;&lt;br&gt;&lt;/div&gt;&lt;div&gt;&lt;br&gt;&lt;/div&gt;&lt;div&gt;&lt;br&gt;&lt;/div&gt;&lt;div&gt;&lt;br&gt;&lt;/div&gt;&lt;div&gt;&lt;br&gt;&lt;/div&gt;&lt;div&gt;&lt;br&gt;&lt;/div&gt;&lt;div&gt;&lt;br&gt;&lt;/div&gt;&lt;div&gt;&lt;br&gt;&lt;/div&gt;&lt;div&gt;&lt;br&gt;&lt;/div&gt;" style="rounded=0;whiteSpace=wrap;html=1;fillColor=none;strokeColor=#d79b00;glass=0;shadow=0;strokeWidth=3;" vertex="1" parent="1">
          <mxGeometry x="1140" y="-763" width="540" height="350" as="geometry" />
        </mxCell>
        <mxCell id="WiDr2w4eeA-nj6cZ7OZJ-40" value="League View&lt;div&gt;&lt;br&gt;&lt;/div&gt;&lt;div&gt;&lt;br&gt;&lt;/div&gt;&lt;div&gt;&lt;br&gt;&lt;/div&gt;&lt;div&gt;&lt;br&gt;&lt;/div&gt;&lt;div&gt;&lt;br&gt;&lt;/div&gt;&lt;div&gt;&lt;br&gt;&lt;/div&gt;&lt;div&gt;&lt;br&gt;&lt;/div&gt;&lt;div&gt;&lt;br&gt;&lt;/div&gt;&lt;div&gt;&lt;br&gt;&lt;/div&gt;&lt;div&gt;&lt;br&gt;&lt;/div&gt;&lt;div&gt;&lt;br&gt;&lt;/div&gt;&lt;div&gt;&lt;br&gt;&lt;/div&gt;&lt;div&gt;&lt;br&gt;&lt;/div&gt;&lt;div&gt;&lt;br&gt;&lt;/div&gt;&lt;div&gt;&lt;br&gt;&lt;/div&gt;&lt;div&gt;&lt;br&gt;&lt;/div&gt;&lt;div&gt;&lt;br&gt;&lt;/div&gt;&lt;div&gt;&lt;br&gt;&lt;/div&gt;&lt;div&gt;&lt;br&gt;&lt;/div&gt;&lt;div&gt;&lt;br&gt;&lt;/div&gt;&lt;div&gt;&lt;br&gt;&lt;/div&gt;&lt;div&gt;&lt;br&gt;&lt;/div&gt;&lt;div&gt;&lt;br&gt;&lt;/div&gt;&lt;div&gt;&lt;br&gt;&lt;/div&gt;&lt;div&gt;&lt;br&gt;&lt;/div&gt;&lt;div&gt;&lt;br&gt;&lt;/div&gt;&lt;div&gt;&lt;br&gt;&lt;/div&gt;&lt;div&gt;&lt;br&gt;&lt;/div&gt;&lt;div&gt;&lt;br&gt;&lt;/div&gt;&lt;div&gt;&lt;br&gt;&lt;/div&gt;&lt;div&gt;&lt;br&gt;&lt;/div&gt;&lt;div&gt;&lt;br&gt;&lt;/div&gt;" style="rounded=1;whiteSpace=wrap;html=1;absoluteArcSize=1;arcSize=14;strokeWidth=2;" vertex="1" parent="1">
          <mxGeometry x="1020" y="-80" width="720" height="570" as="geometry" />
        </mxCell>
        <mxCell id="WiDr2w4eeA-nj6cZ7OZJ-9" style="edgeStyle=orthogonalEdgeStyle;rounded=0;orthogonalLoop=1;jettySize=auto;html=1;entryX=1;entryY=0.5;entryDx=0;entryDy=0;exitX=0.968;exitY=0.629;exitDx=0;exitDy=0;exitPerimeter=0;entryPerimeter=0;" edge="1" parent="1" source="WiDr2w4eeA-nj6cZ7OZJ-13" target="WiDr2w4eeA-nj6cZ7OZJ-47">
          <mxGeometry relative="1" as="geometry">
            <mxPoint x="410" y="190" as="targetPoint" />
            <Array as="points">
              <mxPoint x="1275" y="133" />
              <mxPoint x="1275" y="-150" />
              <mxPoint x="1300" y="-150" />
            </Array>
          </mxGeometry>
        </mxCell>
        <mxCell id="WiDr2w4eeA-nj6cZ7OZJ-37" style="edgeStyle=orthogonalEdgeStyle;rounded=0;orthogonalLoop=1;jettySize=auto;html=1;" edge="1" parent="1" source="WiDr2w4eeA-nj6cZ7OZJ-5" target="WiDr2w4eeA-nj6cZ7OZJ-34">
          <mxGeometry relative="1" as="geometry" />
        </mxCell>
        <mxCell id="WiDr2w4eeA-nj6cZ7OZJ-5" value="Update League Standings" style="rounded=1;whiteSpace=wrap;html=1;fillColor=#ffe6cc;strokeColor=#d79b00;" vertex="1" parent="1">
          <mxGeometry x="1360" y="-240" width="120" height="60" as="geometry" />
        </mxCell>
        <mxCell id="WiDr2w4eeA-nj6cZ7OZJ-6" value="UdapteTable&lt;br&gt;LeagueHistory" style="rounded=1;whiteSpace=wrap;html=1;fillColor=#ffe6cc;strokeColor=#d79b00;" vertex="1" parent="1">
          <mxGeometry x="620" y="340" width="120" height="60" as="geometry" />
        </mxCell>
        <mxCell id="WiDr2w4eeA-nj6cZ7OZJ-7" value="" style="endArrow=classic;html=1;rounded=0;" edge="1" parent="1">
          <mxGeometry width="50" height="50" relative="1" as="geometry">
            <mxPoint x="560" y="590" as="sourcePoint" />
            <mxPoint x="610" y="540" as="targetPoint" />
          </mxGeometry>
        </mxCell>
        <mxCell id="WiDr2w4eeA-nj6cZ7OZJ-11" value="" style="edgeStyle=orthogonalEdgeStyle;rounded=0;orthogonalLoop=1;jettySize=auto;html=1;entryX=0;entryY=0.5;entryDx=0;entryDy=0;exitX=1;exitY=0.5;exitDx=0;exitDy=0;entryPerimeter=0;" edge="1" parent="1" source="WiDr2w4eeA-nj6cZ7OZJ-12" target="WiDr2w4eeA-nj6cZ7OZJ-47">
          <mxGeometry relative="1" as="geometry">
            <mxPoint x="240" y="110" as="sourcePoint" />
            <mxPoint x="490" y="150" as="targetPoint" />
          </mxGeometry>
        </mxCell>
        <mxCell id="WiDr2w4eeA-nj6cZ7OZJ-27" style="edgeStyle=orthogonalEdgeStyle;rounded=0;orthogonalLoop=1;jettySize=auto;html=1;entryX=0.78;entryY=0.5;entryDx=0;entryDy=0;entryPerimeter=0;exitX=-0.017;exitY=0.406;exitDx=0;exitDy=0;exitPerimeter=0;" edge="1" parent="1" source="WiDr2w4eeA-nj6cZ7OZJ-45" target="WiDr2w4eeA-nj6cZ7OZJ-22">
          <mxGeometry relative="1" as="geometry">
            <mxPoint x="1060" y="-560" as="sourcePoint" />
            <mxPoint x="740" y="-530" as="targetPoint" />
            <Array as="points">
              <mxPoint x="1328" y="-580" />
            </Array>
          </mxGeometry>
        </mxCell>
        <mxCell id="WiDr2w4eeA-nj6cZ7OZJ-12" value="&lt;div&gt;&lt;br&gt;&lt;/div&gt;Button&amp;nbsp;&lt;div&gt;Select Season&lt;/div&gt;" style="html=1;strokeWidth=2;shape=manualInput;whiteSpace=wrap;rounded=1;size=26;arcSize=11;fillColor=#dae8fc;strokeColor=#6c8ebf;" vertex="1" parent="1">
          <mxGeometry x="1069" y="-30" width="100" height="60" as="geometry" />
        </mxCell>
        <mxCell id="WiDr2w4eeA-nj6cZ7OZJ-13" value="&lt;div&gt;&lt;br&gt;&lt;/div&gt;Button&amp;nbsp;&lt;div&gt;Select League&lt;/div&gt;" style="html=1;strokeWidth=2;shape=manualInput;whiteSpace=wrap;rounded=1;size=26;arcSize=11;fillColor=#dae8fc;strokeColor=#6c8ebf;" vertex="1" parent="1">
          <mxGeometry x="1070" y="95" width="100" height="60" as="geometry" />
        </mxCell>
        <mxCell id="WiDr2w4eeA-nj6cZ7OZJ-14" value="&lt;div&gt;&lt;br&gt;&lt;/div&gt;Button&amp;nbsp;&lt;div&gt;Select Team&lt;/div&gt;" style="html=1;strokeWidth=2;shape=manualInput;whiteSpace=wrap;rounded=1;size=26;arcSize=11;fillColor=#dae8fc;strokeColor=#6c8ebf;" vertex="1" parent="1">
          <mxGeometry x="-10" y="414" width="100" height="60" as="geometry" />
        </mxCell>
        <mxCell id="WiDr2w4eeA-nj6cZ7OZJ-15" value="&lt;div&gt;&lt;br&gt;&lt;/div&gt;Button&amp;nbsp;&lt;div&gt;Select Week&lt;/div&gt;" style="html=1;strokeWidth=2;shape=manualInput;whiteSpace=wrap;rounded=1;size=26;arcSize=11;fillColor=#dae8fc;strokeColor=#6c8ebf;" vertex="1" parent="1">
          <mxGeometry y="300" width="100" height="60" as="geometry" />
        </mxCell>
        <mxCell id="WiDr2w4eeA-nj6cZ7OZJ-32" style="edgeStyle=orthogonalEdgeStyle;rounded=0;orthogonalLoop=1;jettySize=auto;html=1;entryX=0.027;entryY=0.645;entryDx=0;entryDy=0;exitX=0.412;exitY=1.063;exitDx=0;exitDy=0;exitPerimeter=0;entryPerimeter=0;" edge="1" parent="1" source="WiDr2w4eeA-nj6cZ7OZJ-52" target="WiDr2w4eeA-nj6cZ7OZJ-12">
          <mxGeometry relative="1" as="geometry">
            <mxPoint x="990" y="-449.96" as="sourcePoint" />
            <mxPoint x="1089.0000000000005" y="0.03999999999977263" as="targetPoint" />
            <Array as="points">
              <mxPoint x="770" y="-256" />
              <mxPoint x="770" y="9" />
            </Array>
          </mxGeometry>
        </mxCell>
        <mxCell id="WiDr2w4eeA-nj6cZ7OZJ-17" value="alll Seasons" style="shape=parallelogram;html=1;strokeWidth=2;perimeter=parallelogramPerimeter;whiteSpace=wrap;rounded=1;arcSize=12;size=0.23;" vertex="1" parent="1">
          <mxGeometry x="740" y="-700" width="100" height="60" as="geometry" />
        </mxCell>
        <mxCell id="WiDr2w4eeA-nj6cZ7OZJ-31" style="edgeStyle=orthogonalEdgeStyle;rounded=0;orthogonalLoop=1;jettySize=auto;html=1;entryX=0;entryY=0.75;entryDx=0;entryDy=0;exitX=0.5;exitY=1;exitDx=0;exitDy=0;" edge="1" parent="1" source="WiDr2w4eeA-nj6cZ7OZJ-51" target="WiDr2w4eeA-nj6cZ7OZJ-13">
          <mxGeometry relative="1" as="geometry">
            <Array as="points">
              <mxPoint x="640" y="140" />
            </Array>
          </mxGeometry>
        </mxCell>
        <mxCell id="WiDr2w4eeA-nj6cZ7OZJ-18" value="alll Leagues" style="shape=parallelogram;html=1;strokeWidth=2;perimeter=parallelogramPerimeter;whiteSpace=wrap;rounded=1;arcSize=12;size=0.23;" vertex="1" parent="1">
          <mxGeometry x="600" y="-700" width="100" height="60" as="geometry" />
        </mxCell>
        <mxCell id="WiDr2w4eeA-nj6cZ7OZJ-19" value="alll Weeks" style="shape=parallelogram;html=1;strokeWidth=2;perimeter=parallelogramPerimeter;whiteSpace=wrap;rounded=1;arcSize=12;size=0.23;" vertex="1" parent="1">
          <mxGeometry x="460" y="-700" width="100" height="60" as="geometry" />
        </mxCell>
        <mxCell id="WiDr2w4eeA-nj6cZ7OZJ-20" value="alll Teams" style="shape=parallelogram;html=1;strokeWidth=2;perimeter=parallelogramPerimeter;whiteSpace=wrap;rounded=1;arcSize=12;size=0.23;" vertex="1" parent="1">
          <mxGeometry x="890" y="-700" width="100" height="60" as="geometry" />
        </mxCell>
        <mxCell id="WiDr2w4eeA-nj6cZ7OZJ-39" style="edgeStyle=orthogonalEdgeStyle;rounded=0;orthogonalLoop=1;jettySize=auto;html=1;entryX=0;entryY=0.75;entryDx=0;entryDy=0;" edge="1" parent="1" source="WiDr2w4eeA-nj6cZ7OZJ-21" target="WiDr2w4eeA-nj6cZ7OZJ-15">
          <mxGeometry relative="1" as="geometry">
            <Array as="points">
              <mxPoint x="570" y="390" />
              <mxPoint x="-20" y="390" />
              <mxPoint x="-20" y="345" />
            </Array>
          </mxGeometry>
        </mxCell>
        <mxCell id="WiDr2w4eeA-nj6cZ7OZJ-67" style="edgeStyle=orthogonalEdgeStyle;rounded=0;orthogonalLoop=1;jettySize=auto;html=1;" edge="1" parent="1" source="WiDr2w4eeA-nj6cZ7OZJ-74">
          <mxGeometry relative="1" as="geometry">
            <mxPoint x="1460" y="-240" as="targetPoint" />
            <Array as="points">
              <mxPoint x="1465" y="-240" />
            </Array>
          </mxGeometry>
        </mxCell>
        <mxCell id="WiDr2w4eeA-nj6cZ7OZJ-69" value="max week" style="edgeLabel;html=1;align=center;verticalAlign=middle;resizable=0;points=[];" vertex="1" connectable="0" parent="WiDr2w4eeA-nj6cZ7OZJ-67">
          <mxGeometry x="0.8701" y="-1" relative="1" as="geometry">
            <mxPoint y="-39" as="offset" />
          </mxGeometry>
        </mxCell>
        <mxCell id="WiDr2w4eeA-nj6cZ7OZJ-21" value="avialable&lt;div&gt;Weeks&lt;/div&gt;" style="shape=parallelogram;html=1;strokeWidth=2;perimeter=parallelogramPerimeter;whiteSpace=wrap;rounded=1;arcSize=12;size=0.23;" vertex="1" parent="1">
          <mxGeometry x="450" y="-400" width="100" height="60" as="geometry" />
        </mxCell>
        <mxCell id="WiDr2w4eeA-nj6cZ7OZJ-28" style="edgeStyle=orthogonalEdgeStyle;rounded=0;orthogonalLoop=1;jettySize=auto;html=1;" edge="1" parent="1" source="WiDr2w4eeA-nj6cZ7OZJ-22" target="WiDr2w4eeA-nj6cZ7OZJ-21">
          <mxGeometry relative="1" as="geometry">
            <Array as="points">
              <mxPoint x="510" y="-510" />
              <mxPoint x="510" y="-510" />
            </Array>
          </mxGeometry>
        </mxCell>
        <mxCell id="WiDr2w4eeA-nj6cZ7OZJ-22" value="&lt;div&gt;&lt;br&gt;&lt;/div&gt;filter" style="strokeWidth=2;html=1;shape=mxgraph.flowchart.extract_or_measurement;whiteSpace=wrap;" vertex="1" parent="1">
          <mxGeometry x="480" y="-600" width="60" height="40" as="geometry" />
        </mxCell>
        <mxCell id="WiDr2w4eeA-nj6cZ7OZJ-26" style="edgeStyle=orthogonalEdgeStyle;rounded=0;orthogonalLoop=1;jettySize=auto;html=1;entryX=0.5;entryY=0;entryDx=0;entryDy=0;entryPerimeter=0;" edge="1" parent="1" source="WiDr2w4eeA-nj6cZ7OZJ-19" target="WiDr2w4eeA-nj6cZ7OZJ-22">
          <mxGeometry relative="1" as="geometry">
            <Array as="points">
              <mxPoint x="510" y="-600" />
              <mxPoint x="510" y="-600" />
            </Array>
          </mxGeometry>
        </mxCell>
        <mxCell id="WiDr2w4eeA-nj6cZ7OZJ-33" value="Table League Standings" style="strokeWidth=2;html=1;shape=mxgraph.flowchart.display;whiteSpace=wrap;" vertex="1" parent="1">
          <mxGeometry x="1610" y="-30" width="100" height="60" as="geometry" />
        </mxCell>
        <mxCell id="WiDr2w4eeA-nj6cZ7OZJ-34" value="Chart&lt;br&gt;Points / week" style="strokeWidth=2;html=1;shape=mxgraph.flowchart.display;whiteSpace=wrap;" vertex="1" parent="1">
          <mxGeometry x="1610" y="55" width="100" height="60" as="geometry" />
        </mxCell>
        <mxCell id="WiDr2w4eeA-nj6cZ7OZJ-35" value="Chart&lt;br&gt;Points / week&lt;div&gt;cumulated&lt;/div&gt;" style="strokeWidth=2;html=1;shape=mxgraph.flowchart.display;whiteSpace=wrap;" vertex="1" parent="1">
          <mxGeometry x="1610" y="135" width="100" height="60" as="geometry" />
        </mxCell>
        <mxCell id="WiDr2w4eeA-nj6cZ7OZJ-36" style="edgeStyle=orthogonalEdgeStyle;rounded=0;orthogonalLoop=1;jettySize=auto;html=1;entryX=0;entryY=0.5;entryDx=0;entryDy=0;entryPerimeter=0;" edge="1" parent="1" source="WiDr2w4eeA-nj6cZ7OZJ-5" target="WiDr2w4eeA-nj6cZ7OZJ-33">
          <mxGeometry relative="1" as="geometry" />
        </mxCell>
        <mxCell id="WiDr2w4eeA-nj6cZ7OZJ-38" style="edgeStyle=orthogonalEdgeStyle;rounded=0;orthogonalLoop=1;jettySize=auto;html=1;entryX=0;entryY=0.5;entryDx=0;entryDy=0;entryPerimeter=0;" edge="1" parent="1" source="WiDr2w4eeA-nj6cZ7OZJ-5" target="WiDr2w4eeA-nj6cZ7OZJ-35">
          <mxGeometry relative="1" as="geometry" />
        </mxCell>
        <mxCell id="WiDr2w4eeA-nj6cZ7OZJ-43" value="" style="ellipse;html=1;shape=startState;fillColor=#000000;strokeColor=#ff0000;" vertex="1" parent="1">
          <mxGeometry x="260" y="-570" width="30" height="30" as="geometry" />
        </mxCell>
        <mxCell id="WiDr2w4eeA-nj6cZ7OZJ-44" value="" style="edgeStyle=orthogonalEdgeStyle;html=1;verticalAlign=bottom;endArrow=open;endSize=8;strokeColor=#ff0000;rounded=0;" edge="1" source="WiDr2w4eeA-nj6cZ7OZJ-43" parent="1">
          <mxGeometry relative="1" as="geometry">
            <mxPoint x="275" y="-480" as="targetPoint" />
          </mxGeometry>
        </mxCell>
        <mxCell id="WiDr2w4eeA-nj6cZ7OZJ-77" style="edgeStyle=orthogonalEdgeStyle;rounded=0;orthogonalLoop=1;jettySize=auto;html=1;entryX=0;entryY=0.5;entryDx=0;entryDy=0;" edge="1" parent="1" source="WiDr2w4eeA-nj6cZ7OZJ-45" target="WiDr2w4eeA-nj6cZ7OZJ-5">
          <mxGeometry relative="1" as="geometry">
            <Array as="points">
              <mxPoint x="1510" y="-570" />
              <mxPoint x="1510" y="-480" />
              <mxPoint x="1340" y="-480" />
              <mxPoint x="1340" y="-210" />
            </Array>
          </mxGeometry>
        </mxCell>
        <mxCell id="WiDr2w4eeA-nj6cZ7OZJ-78" value="trigger" style="edgeLabel;html=1;align=center;verticalAlign=middle;resizable=0;points=[];" vertex="1" connectable="0" parent="WiDr2w4eeA-nj6cZ7OZJ-77">
          <mxGeometry x="0.5817" y="-1" relative="1" as="geometry">
            <mxPoint as="offset" />
          </mxGeometry>
        </mxCell>
        <mxCell id="WiDr2w4eeA-nj6cZ7OZJ-45" value="Update Buttons" style="rounded=1;whiteSpace=wrap;html=1;fillColor=#ffe6cc;strokeColor=#d79b00;" vertex="1" parent="1">
          <mxGeometry x="1370" y="-600" width="120" height="60" as="geometry" />
        </mxCell>
        <mxCell id="WiDr2w4eeA-nj6cZ7OZJ-48" style="edgeStyle=orthogonalEdgeStyle;rounded=0;orthogonalLoop=1;jettySize=auto;html=1;entryX=0;entryY=0.5;entryDx=0;entryDy=0;" edge="1" parent="1" source="WiDr2w4eeA-nj6cZ7OZJ-47" target="WiDr2w4eeA-nj6cZ7OZJ-45">
          <mxGeometry relative="1" as="geometry">
            <mxPoint x="1380" y="-370" as="targetPoint" />
            <Array as="points">
              <mxPoint x="1280" y="-570" />
            </Array>
          </mxGeometry>
        </mxCell>
        <mxCell id="WiDr2w4eeA-nj6cZ7OZJ-79" value="trigger" style="edgeLabel;html=1;align=center;verticalAlign=middle;resizable=0;points=[];" vertex="1" connectable="0" parent="WiDr2w4eeA-nj6cZ7OZJ-48">
          <mxGeometry x="0.2467" y="-2" relative="1" as="geometry">
            <mxPoint as="offset" />
          </mxGeometry>
        </mxCell>
        <mxCell id="WiDr2w4eeA-nj6cZ7OZJ-47" value="" style="verticalLabelPosition=bottom;verticalAlign=top;html=1;shape=mxgraph.flowchart.summing_function;" vertex="1" parent="1">
          <mxGeometry x="1270" y="-520" width="30" height="30" as="geometry" />
        </mxCell>
        <mxCell id="WiDr2w4eeA-nj6cZ7OZJ-65" style="edgeStyle=orthogonalEdgeStyle;rounded=0;orthogonalLoop=1;jettySize=auto;html=1;entryX=0.568;entryY=0.029;entryDx=0;entryDy=0;entryPerimeter=0;" edge="1" parent="1" source="WiDr2w4eeA-nj6cZ7OZJ-51" target="WiDr2w4eeA-nj6cZ7OZJ-5">
          <mxGeometry relative="1" as="geometry">
            <mxPoint x="1140" y="-330" as="targetPoint" />
          </mxGeometry>
        </mxCell>
        <mxCell id="WiDr2w4eeA-nj6cZ7OZJ-51" value="avaiable&lt;div&gt;Leagues&lt;/div&gt;" style="shape=parallelogram;html=1;strokeWidth=2;perimeter=parallelogramPerimeter;whiteSpace=wrap;rounded=1;arcSize=12;size=0.23;" vertex="1" parent="1">
          <mxGeometry x="590" y="-360" width="100" height="60" as="geometry" />
        </mxCell>
        <mxCell id="WiDr2w4eeA-nj6cZ7OZJ-66" style="edgeStyle=orthogonalEdgeStyle;rounded=0;orthogonalLoop=1;jettySize=auto;html=1;entryX=0.322;entryY=0.049;entryDx=0;entryDy=0;entryPerimeter=0;" edge="1" parent="1" source="WiDr2w4eeA-nj6cZ7OZJ-52" target="WiDr2w4eeA-nj6cZ7OZJ-5">
          <mxGeometry relative="1" as="geometry">
            <mxPoint x="1140" y="-290" as="targetPoint" />
          </mxGeometry>
        </mxCell>
        <mxCell id="WiDr2w4eeA-nj6cZ7OZJ-52" value="available&lt;div&gt;Seasons&lt;/div&gt;" style="shape=parallelogram;html=1;strokeWidth=2;perimeter=parallelogramPerimeter;whiteSpace=wrap;rounded=1;arcSize=12;size=0.23;" vertex="1" parent="1">
          <mxGeometry x="730" y="-320" width="100" height="60" as="geometry" />
        </mxCell>
        <mxCell id="WiDr2w4eeA-nj6cZ7OZJ-53" value="" style="edgeStyle=orthogonalEdgeStyle;rounded=0;orthogonalLoop=1;jettySize=auto;html=1;exitX=0.026;exitY=0.367;exitDx=0;exitDy=0;exitPerimeter=0;entryX=0.78;entryY=0.5;entryDx=0;entryDy=0;entryPerimeter=0;" edge="1" parent="1" source="WiDr2w4eeA-nj6cZ7OZJ-45" target="WiDr2w4eeA-nj6cZ7OZJ-49">
          <mxGeometry relative="1" as="geometry">
            <mxPoint x="1290" y="-185" as="sourcePoint" />
            <mxPoint x="707" y="-393" as="targetPoint" />
            <Array as="points">
              <mxPoint x="1333" y="-580" />
              <mxPoint x="1070" y="-580" />
              <mxPoint x="1070" y="-540" />
            </Array>
          </mxGeometry>
        </mxCell>
        <mxCell id="WiDr2w4eeA-nj6cZ7OZJ-57" style="edgeStyle=orthogonalEdgeStyle;rounded=0;orthogonalLoop=1;jettySize=auto;html=1;exitX=0.5;exitY=1;exitDx=0;exitDy=0;exitPerimeter=0;entryX=0.57;entryY=0.041;entryDx=0;entryDy=0;entryPerimeter=0;" edge="1" parent="1" source="WiDr2w4eeA-nj6cZ7OZJ-49" target="WiDr2w4eeA-nj6cZ7OZJ-51">
          <mxGeometry relative="1" as="geometry">
            <mxPoint x="590" y="-420" as="targetPoint" />
          </mxGeometry>
        </mxCell>
        <mxCell id="WiDr2w4eeA-nj6cZ7OZJ-49" value="&lt;div&gt;&lt;br&gt;&lt;/div&gt;filter" style="strokeWidth=2;html=1;shape=mxgraph.flowchart.extract_or_measurement;whiteSpace=wrap;" vertex="1" parent="1">
          <mxGeometry x="620" y="-560" width="60" height="40" as="geometry" />
        </mxCell>
        <mxCell id="WiDr2w4eeA-nj6cZ7OZJ-50" value="&lt;div&gt;&lt;br&gt;&lt;/div&gt;filter" style="strokeWidth=2;html=1;shape=mxgraph.flowchart.extract_or_measurement;whiteSpace=wrap;" vertex="1" parent="1">
          <mxGeometry x="760" y="-520" width="60" height="40" as="geometry" />
        </mxCell>
        <mxCell id="WiDr2w4eeA-nj6cZ7OZJ-58" style="edgeStyle=orthogonalEdgeStyle;rounded=0;orthogonalLoop=1;jettySize=auto;html=1;entryX=0.5;entryY=0;entryDx=0;entryDy=0;entryPerimeter=0;" edge="1" parent="1" source="WiDr2w4eeA-nj6cZ7OZJ-17" target="WiDr2w4eeA-nj6cZ7OZJ-50">
          <mxGeometry relative="1" as="geometry" />
        </mxCell>
        <mxCell id="WiDr2w4eeA-nj6cZ7OZJ-71" style="edgeStyle=orthogonalEdgeStyle;rounded=0;orthogonalLoop=1;jettySize=auto;html=1;entryX=0.5;entryY=0;entryDx=0;entryDy=0;" edge="1" parent="1" source="WiDr2w4eeA-nj6cZ7OZJ-60" target="WiDr2w4eeA-nj6cZ7OZJ-64">
          <mxGeometry relative="1" as="geometry" />
        </mxCell>
        <mxCell id="WiDr2w4eeA-nj6cZ7OZJ-60" value="&lt;div&gt;&lt;br&gt;&lt;/div&gt;filter" style="strokeWidth=2;html=1;shape=mxgraph.flowchart.extract_or_measurement;whiteSpace=wrap;" vertex="1" parent="1">
          <mxGeometry x="910" y="-480" width="60" height="40" as="geometry" />
        </mxCell>
        <mxCell id="WiDr2w4eeA-nj6cZ7OZJ-61" style="edgeStyle=orthogonalEdgeStyle;rounded=0;orthogonalLoop=1;jettySize=auto;html=1;entryX=0.5;entryY=0;entryDx=0;entryDy=0;entryPerimeter=0;" edge="1" parent="1" source="WiDr2w4eeA-nj6cZ7OZJ-20" target="WiDr2w4eeA-nj6cZ7OZJ-60">
          <mxGeometry relative="1" as="geometry" />
        </mxCell>
        <mxCell id="WiDr2w4eeA-nj6cZ7OZJ-68" style="edgeStyle=orthogonalEdgeStyle;rounded=0;orthogonalLoop=1;jettySize=auto;html=1;" edge="1" parent="1" source="WiDr2w4eeA-nj6cZ7OZJ-64">
          <mxGeometry relative="1" as="geometry">
            <mxPoint x="1140" y="-250" as="targetPoint" />
          </mxGeometry>
        </mxCell>
        <mxCell id="WiDr2w4eeA-nj6cZ7OZJ-64" value="available&lt;div&gt;Teams&lt;/div&gt;" style="shape=parallelogram;html=1;strokeWidth=2;perimeter=parallelogramPerimeter;whiteSpace=wrap;rounded=1;arcSize=12;size=0.23;" vertex="1" parent="1">
          <mxGeometry x="890" y="-280" width="100" height="60" as="geometry" />
        </mxCell>
        <mxCell id="WiDr2w4eeA-nj6cZ7OZJ-70" style="edgeStyle=orthogonalEdgeStyle;rounded=0;orthogonalLoop=1;jettySize=auto;html=1;entryX=0.5;entryY=0;entryDx=0;entryDy=0;" edge="1" parent="1" source="WiDr2w4eeA-nj6cZ7OZJ-50" target="WiDr2w4eeA-nj6cZ7OZJ-52">
          <mxGeometry relative="1" as="geometry" />
        </mxCell>
        <mxCell id="WiDr2w4eeA-nj6cZ7OZJ-72" style="edgeStyle=orthogonalEdgeStyle;rounded=0;orthogonalLoop=1;jettySize=auto;html=1;entryX=0.78;entryY=0.5;entryDx=0;entryDy=0;entryPerimeter=0;" edge="1" parent="1" source="WiDr2w4eeA-nj6cZ7OZJ-45" target="WiDr2w4eeA-nj6cZ7OZJ-50">
          <mxGeometry relative="1" as="geometry">
            <Array as="points">
              <mxPoint x="1080" y="-580" />
              <mxPoint x="1080" y="-500" />
            </Array>
          </mxGeometry>
        </mxCell>
        <mxCell id="WiDr2w4eeA-nj6cZ7OZJ-73" style="edgeStyle=orthogonalEdgeStyle;rounded=0;orthogonalLoop=1;jettySize=auto;html=1;entryX=0.78;entryY=0.5;entryDx=0;entryDy=0;entryPerimeter=0;" edge="1" parent="1" source="WiDr2w4eeA-nj6cZ7OZJ-45" target="WiDr2w4eeA-nj6cZ7OZJ-60">
          <mxGeometry relative="1" as="geometry">
            <Array as="points">
              <mxPoint x="1090" y="-580" />
              <mxPoint x="1090" y="-460" />
            </Array>
          </mxGeometry>
        </mxCell>
        <mxCell id="WiDr2w4eeA-nj6cZ7OZJ-75" value="" style="edgeStyle=orthogonalEdgeStyle;rounded=0;orthogonalLoop=1;jettySize=auto;html=1;" edge="1" parent="1" source="WiDr2w4eeA-nj6cZ7OZJ-21" target="WiDr2w4eeA-nj6cZ7OZJ-74">
          <mxGeometry relative="1" as="geometry">
            <mxPoint x="1460" y="-240" as="targetPoint" />
            <mxPoint x="539" y="-370" as="sourcePoint" />
            <Array as="points">
              <mxPoint x="1465" y="-370" />
            </Array>
          </mxGeometry>
        </mxCell>
        <mxCell id="WiDr2w4eeA-nj6cZ7OZJ-74" value="max" style="strokeWidth=2;html=1;shape=mxgraph.flowchart.decision;whiteSpace=wrap;" vertex="1" parent="1">
          <mxGeometry x="1440" y="-360" width="50" height="50" as="geometry" />
        </mxCell>
        <mxCell id="WiDr2w4eeA-nj6cZ7OZJ-81" value="Week View&lt;div&gt;&lt;br&gt;&lt;/div&gt;&lt;div&gt;&lt;br&gt;&lt;/div&gt;&lt;div&gt;&lt;br&gt;&lt;/div&gt;&lt;div&gt;&lt;br&gt;&lt;/div&gt;&lt;div&gt;&lt;br&gt;&lt;/div&gt;&lt;div&gt;&lt;br&gt;&lt;/div&gt;&lt;div&gt;&lt;br&gt;&lt;/div&gt;&lt;div&gt;&lt;br&gt;&lt;/div&gt;&lt;div&gt;&lt;br&gt;&lt;/div&gt;" style="rounded=1;whiteSpace=wrap;html=1;absoluteArcSize=1;arcSize=14;strokeWidth=2;" vertex="1" parent="1">
          <mxGeometry x="1040" y="230" width="680" height="240" as="geometry" />
        </mxCell>
        <mxCell id="WiDr2w4eeA-nj6cZ7OZJ-82" value="&lt;div&gt;&lt;br&gt;&lt;/div&gt;Button&amp;nbsp;&lt;div&gt;Select Week&lt;/div&gt;" style="html=1;strokeWidth=2;shape=manualInput;whiteSpace=wrap;rounded=1;size=26;arcSize=11;fillColor=#dae8fc;strokeColor=#6c8ebf;" vertex="1" parent="1">
          <mxGeometry x="1069" y="280" width="100" height="60" as="geometry" />
        </mxCell>
        <mxCell id="WiDr2w4eeA-nj6cZ7OZJ-83" value="Table&lt;br&gt;Week Results" style="strokeWidth=2;html=1;shape=mxgraph.flowchart.display;whiteSpace=wrap;" vertex="1" parent="1">
          <mxGeometry x="1550" y="280" width="100" height="60" as="geometry" />
        </mxCell>
        <mxCell id="WiDr2w4eeA-nj6cZ7OZJ-84" value="Table&lt;br&gt;Honor Scores" style="strokeWidth=2;html=1;shape=mxgraph.flowchart.display;whiteSpace=wrap;" vertex="1" parent="1">
          <mxGeometry x="1550" y="354" width="100" height="60" as="geometry" />
        </mxCell>
      </root>
    </mxGraphModel>
  </diagram>
</mxfile>
